<?xml version="1.0" encoding="UTF-8" standalone="no"?>
<svg width="1470px" height="65px" viewBox="0 0 1470 65" version="1.1" xmlns="http://www.w3.org/2000/svg" xmlns:xlink="http://www.w3.org/1999/xlink" xmlns:sketch="http://www.bohemiancoding.com/sketch/ns">
    <!-- Generator: Sketch 3.3.3 (12081) - http://www.bohemiancoding.com/sketch -->
    <title>Group Copy 4</title>
    <desc>Created with Sketch.</desc>
    <defs></defs>
    <g id="Page-1" stroke="none" stroke-width="1" fill="none" fill-rule="evenodd" sketch:type="MSPage">
        <g id="Artboard-11" sketch:type="MSArtboardGroup" transform="translate(-205.000000, -458.000000)">
            <g id="Group-Copy-4" sketch:type="MSLayerGroup" transform="translate(205.000000, 458.000000)">
                <g id="Rectangle-1-Copy-4-+-Rectangle-1-Copy-3-+-Rectangle-5-+-Group-+-Group-+-Group-Copy-2-+-Group-Copy-3-Copy" transform="translate(366.000000, 0.000000)" sketch:type="MSShapeGroup">
                    <g id="Rectangle-1-Copy-4-+-Rectangle-1-Copy-3-+-Rectangle-5">
                        <rect id="Rectangle-1-Copy-4" fill="#3074B7" x="0.300505051" y="48.2022472" width="118.699495" height="16.7977528"></rect>
                        <rect id="Rectangle-1-Copy-3" fill="#3074B7" x="0.270454545" y="0" width="118.699495" height="16.7977528"></rect>
                        <rect id="Rectangle-5" fill="#E63030" x="0.300505051" y="16.7977528" width="118.699495" height="31.4044944"></rect>
                    </g>
                    <g id="Group-+-Group-+-Group-Copy-2-+-Group-Copy-3" transform="translate(6.000000, 0.000000)">
                        <g id="Group" transform="translate(0.000000, 22.000000)" fill="#FFFAFA">
                            <polygon id="Star-1-Copy-2" transform="translate(67.266837, 11.132142) scale(1, -1) rotate(-36.000000) translate(-67.266837, -11.132142) " points="67.2668374 14.7847696 62.9729163 17.0422175 63.7929823 12.2608661 60.3191272 8.87469422 65.1198769 8.17710445 67.2668374 3.82688723 69.413798 8.17710445 74.2145477 8.87469422 70.7406926 12.2608661 71.5607585 17.0422175 "></polygon>
                            <polygon id="Star-1-Copy-3" transform="translate(95.805255, 11.132142) scale(1, -1) rotate(-36.000000) translate(-95.805255, -11.132142) " points="95.8052549 14.7847696 91.5113338 17.0422175 92.3313998 12.2608661 88.8575446 8.87469422 93.6582944 8.17710445 95.8052549 3.82688723 97.9522154 8.17710445 102.752965 8.87469422 99.27911 12.2608661 100.099176 17.0422175 "></polygon>
                            <polygon id="Star-1-Copy-4" transform="translate(38.728420, 10.500000) scale(1, -1) rotate(-36.000000) translate(-38.728420, -10.500000) " points="38.72842 14.1526275 34.4344989 16.4100754 35.2545648 11.628724 31.7807097 8.24255209 36.5814594 7.54496232 38.72842 3.1947451 40.8753805 7.54496232 45.6761303 8.24255209 42.2022751 11.628724 43.0223411 16.4100754 "></polygon>
                            <polygon id="Star-1-Copy-5" transform="translate(11.000000, 10.500000) scale(1, -1) rotate(-36.000000) translate(-11.000000, -10.500000) " points="11 14.1526275 6.7060789 16.4100754 7.52614486 11.628724 4.05228972 8.24255209 8.85303945 7.54496232 11 3.1947451 13.1469605 7.54496232 17.9477103 8.24255209 14.4738551 11.628724 15.2939211 16.4100754 "></polygon>
                        </g>
                        <g id="Group-+-Group-Copy-2-+-Group-Copy-3" transform="translate(73.000000, 0.000000)">
                            <g id="Group" transform="translate(177.000000, 0.000000)">
                                <rect id="Rectangle-1-Copy-3" fill="#3074B7" x="0.270454545" y="0" width="118.699495" height="16.7977528"></rect>
                                <rect id="Rectangle-5" fill="#E63030" x="0.300505051" y="16.7977528" width="118.699495" height="31.4044944"></rect>
                                <rect id="Rectangle-1-Copy-4" fill="#3074B7" x="0.300505051" y="48.2022472" width="118.699495" height="16.7977528"></rect>
                                <g id="Group-Copy" transform="translate(6.000000, 22.000000)" fill="#FFFAFA">
                                    <polygon id="Star-1-Copy-2" transform="translate(67.266837, 11.132142) scale(1, -1) rotate(-36.000000) translate(-67.266837, -11.132142) " points="67.2668374 14.7847696 62.9729163 17.0422175 63.7929823 12.2608661 60.3191272 8.87469422 65.1198769 8.17710445 67.2668374 3.82688723 69.413798 8.17710445 74.2145477 8.87469422 70.7406926 12.2608661 71.5607585 17.0422175 "></polygon>
                                    <polygon id="Star-1-Copy-3" transform="translate(95.805255, 11.132142) scale(1, -1) rotate(-36.000000) translate(-95.805255, -11.132142) " points="95.8052549 14.7847696 91.5113338 17.0422175 92.3313998 12.2608661 88.8575446 8.87469422 93.6582944 8.17710445 95.8052549 3.82688723 97.9522154 8.17710445 102.752965 8.87469422 99.27911 12.2608661 100.099176 17.0422175 "></polygon>
                                    <polygon id="Star-1-Copy-4" transform="translate(38.728420, 10.500000) scale(1, -1) rotate(-36.000000) translate(-38.728420, -10.500000) " points="38.72842 14.1526275 34.4344989 16.4100754 35.2545648 11.628724 31.7807097 8.24255209 36.5814594 7.54496232 38.72842 3.1947451 40.8753805 7.54496232 45.6761303 8.24255209 42.2022751 11.628724 43.0223411 16.4100754 "></polygon>
                                    <polygon id="Star-1-Copy-5" transform="translate(11.000000, 10.500000) scale(1, -1) rotate(-36.000000) translate(-11.000000, -10.500000) " points="11 14.1526275 6.7060789 16.4100754 7.52614486 11.628724 4.05228972 8.24255209 8.85303945 7.54496232 11 3.1947451 13.1469605 7.54496232 17.9477103 8.24255209 14.4738551 11.628724 15.2939211 16.4100754 "></polygon>
                                </g>
                            </g>
                            <g id="Group-Copy-2" transform="translate(60.000000, 0.000000)">
                                <rect id="Rectangle-1-Copy-3" fill="#3074B7" x="0.270454545" y="0" width="118.699495" height="16.7977528"></rect>
                                <rect id="Rectangle-5" fill="#E63030" x="0.300505051" y="16.7977528" width="118.699495" height="31.4044944"></rect>
                                <rect id="Rectangle-1-Copy-4" fill="#3074B7" x="0.300505051" y="48.2022472" width="118.699495" height="16.7977528"></rect>
                                <g id="Group-Copy" transform="translate(6.000000, 22.000000)" fill="#FFFAFA">
                                    <polygon id="Star-1-Copy-2" transform="translate(67.266837, 11.132142) scale(1, -1) rotate(-36.000000) translate(-67.266837, -11.132142) " points="67.2668374 14.7847696 62.9729163 17.0422175 63.7929823 12.2608661 60.3191272 8.87469422 65.1198769 8.17710445 67.2668374 3.82688723 69.413798 8.17710445 74.2145477 8.87469422 70.7406926 12.2608661 71.5607585 17.0422175 "></polygon>
                                    <polygon id="Star-1-Copy-3" transform="translate(95.805255, 11.132142) scale(1, -1) rotate(-36.000000) translate(-95.805255, -11.132142) " points="95.8052549 14.7847696 91.5113338 17.0422175 92.3313998 12.2608661 88.8575446 8.87469422 93.6582944 8.17710445 95.8052549 3.82688723 97.9522154 8.17710445 102.752965 8.87469422 99.27911 12.2608661 100.099176 17.0422175 "></polygon>
                                    <polygon id="Star-1-Copy-4" transform="translate(38.728420, 10.500000) scale(1, -1) rotate(-36.000000) translate(-38.728420, -10.500000) " points="38.72842 14.1526275 34.4344989 16.4100754 35.2545648 11.628724 31.7807097 8.24255209 36.5814594 7.54496232 38.72842 3.1947451 40.8753805 7.54496232 45.6761303 8.24255209 42.2022751 11.628724 43.0223411 16.4100754 "></polygon>
                                    <polygon id="Star-1-Copy-5" transform="translate(11.000000, 10.500000) scale(1, -1) rotate(-36.000000) translate(-11.000000, -10.500000) " points="11 14.1526275 6.7060789 16.4100754 7.52614486 11.628724 4.05228972 8.24255209 8.85303945 7.54496232 11 3.1947451 13.1469605 7.54496232 17.9477103 8.24255209 14.4738551 11.628724 15.2939211 16.4100754 "></polygon>
                                </g>
                            </g>
                            <g id="Group-Copy-3">
                                <rect id="Rectangle-1-Copy-3" fill="#3074B7" x="0.270454545" y="0" width="118.699495" height="16.7977528"></rect>
                                <rect id="Rectangle-5" fill="#E63030" x="0.300505051" y="16.7977528" width="118.699495" height="31.4044944"></rect>
                                <rect id="Rectangle-1-Copy-4" fill="#3074B7" x="0.300505051" y="48.2022472" width="118.699495" height="16.7977528"></rect>
                                <g id="Group-Copy" transform="translate(6.000000, 22.000000)" fill="#FFFAFA">
                                    <polygon id="Star-1-Copy-2" transform="translate(67.266837, 11.132142) scale(1, -1) rotate(-36.000000) translate(-67.266837, -11.132142) " points="67.2668374 14.7847696 62.9729163 17.0422175 63.7929823 12.2608661 60.3191272 8.87469422 65.1198769 8.17710445 67.2668374 3.82688723 69.413798 8.17710445 74.2145477 8.87469422 70.7406926 12.2608661 71.5607585 17.0422175 "></polygon>
                                    <polygon id="Star-1-Copy-3" transform="translate(95.805255, 11.132142) scale(1, -1) rotate(-36.000000) translate(-95.805255, -11.132142) " points="95.8052549 14.7847696 91.5113338 17.0422175 92.3313998 12.2608661 88.8575446 8.87469422 93.6582944 8.17710445 95.8052549 3.82688723 97.9522154 8.17710445 102.752965 8.87469422 99.27911 12.2608661 100.099176 17.0422175 "></polygon>
                                    <polygon id="Star-1-Copy-4" transform="translate(38.728420, 10.500000) scale(1, -1) rotate(-36.000000) translate(-38.728420, -10.500000) " points="38.72842 14.1526275 34.4344989 16.4100754 35.2545648 11.628724 31.7807097 8.24255209 36.5814594 7.54496232 38.72842 3.1947451 40.8753805 7.54496232 45.6761303 8.24255209 42.2022751 11.628724 43.0223411 16.4100754 "></polygon>
                                    <polygon id="Star-1-Copy-5" transform="translate(11.000000, 10.500000) scale(1, -1) rotate(-36.000000) translate(-11.000000, -10.500000) " points="11 14.1526275 6.7060789 16.4100754 7.52614486 11.628724 4.05228972 8.24255209 8.85303945 7.54496232 11 3.1947451 13.1469605 7.54496232 17.9477103 8.24255209 14.4738551 11.628724 15.2939211 16.4100754 "></polygon>
                                </g>
                            </g>
                        </g>
                    </g>
                </g>
                <g id="Rectangle-1-Copy-4-+-Rectangle-1-Copy-3-+-Rectangle-5-+-Group-+-Group-+-Group-Copy-2-+-Group-Copy-3-Copy-Copy" sketch:type="MSShapeGroup">
                    <g id="Rectangle-1-Copy-4-+-Rectangle-1-Copy-3-+-Rectangle-5">
                        <rect id="Rectangle-1-Copy-4" fill="#3074B7" x="0.300505051" y="48.2022472" width="118.699495" height="16.7977528"></rect>
                        <rect id="Rectangle-1-Copy-3" fill="#3074B7" x="0.270454545" y="0" width="118.699495" height="16.7977528"></rect>
                        <rect id="Rectangle-5" fill="#E63030" x="0.300505051" y="16.7977528" width="118.699495" height="31.4044944"></rect>
                    </g>
                    <g id="Group-+-Group-+-Group-Copy-2-+-Group-Copy-3" transform="translate(6.000000, 0.000000)">
                        <g id="Group" transform="translate(0.000000, 22.000000)" fill="#FFFAFA">
                            <polygon id="Star-1-Copy-2" transform="translate(67.266837, 11.132142) scale(1, -1) rotate(-36.000000) translate(-67.266837, -11.132142) " points="67.2668374 14.7847696 62.9729163 17.0422175 63.7929823 12.2608661 60.3191272 8.87469422 65.1198769 8.17710445 67.2668374 3.82688723 69.413798 8.17710445 74.2145477 8.87469422 70.7406926 12.2608661 71.5607585 17.0422175 "></polygon>
                            <polygon id="Star-1-Copy-3" transform="translate(95.805255, 11.132142) scale(1, -1) rotate(-36.000000) translate(-95.805255, -11.132142) " points="95.8052549 14.7847696 91.5113338 17.0422175 92.3313998 12.2608661 88.8575446 8.87469422 93.6582944 8.17710445 95.8052549 3.82688723 97.9522154 8.17710445 102.752965 8.87469422 99.27911 12.2608661 100.099176 17.0422175 "></polygon>
                            <polygon id="Star-1-Copy-4" transform="translate(38.728420, 10.500000) scale(1, -1) rotate(-36.000000) translate(-38.728420, -10.500000) " points="38.72842 14.1526275 34.4344989 16.4100754 35.2545648 11.628724 31.7807097 8.24255209 36.5814594 7.54496232 38.72842 3.1947451 40.8753805 7.54496232 45.6761303 8.24255209 42.2022751 11.628724 43.0223411 16.4100754 "></polygon>
                            <polygon id="Star-1-Copy-5" transform="translate(11.000000, 10.500000) scale(1, -1) rotate(-36.000000) translate(-11.000000, -10.500000) " points="11 14.1526275 6.7060789 16.4100754 7.52614486 11.628724 4.05228972 8.24255209 8.85303945 7.54496232 11 3.1947451 13.1469605 7.54496232 17.9477103 8.24255209 14.4738551 11.628724 15.2939211 16.4100754 "></polygon>
                        </g>
                        <g id="Group-+-Group-Copy-2-+-Group-Copy-3" transform="translate(73.000000, 0.000000)">
                            <g id="Group" transform="translate(177.000000, 0.000000)">
                                <rect id="Rectangle-1-Copy-3" fill="#3074B7" x="0.270454545" y="0" width="118.699495" height="16.7977528"></rect>
                                <rect id="Rectangle-5" fill="#E63030" x="0.300505051" y="16.7977528" width="118.699495" height="31.4044944"></rect>
                                <rect id="Rectangle-1-Copy-4" fill="#3074B7" x="0.300505051" y="48.2022472" width="118.699495" height="16.7977528"></rect>
                                <g id="Group-Copy" transform="translate(6.000000, 22.000000)" fill="#FFFAFA">
                                    <polygon id="Star-1-Copy-2" transform="translate(67.266837, 11.132142) scale(1, -1) rotate(-36.000000) translate(-67.266837, -11.132142) " points="67.2668374 14.7847696 62.9729163 17.0422175 63.7929823 12.2608661 60.3191272 8.87469422 65.1198769 8.17710445 67.2668374 3.82688723 69.413798 8.17710445 74.2145477 8.87469422 70.7406926 12.2608661 71.5607585 17.0422175 "></polygon>
                                    <polygon id="Star-1-Copy-3" transform="translate(95.805255, 11.132142) scale(1, -1) rotate(-36.000000) translate(-95.805255, -11.132142) " points="95.8052549 14.7847696 91.5113338 17.0422175 92.3313998 12.2608661 88.8575446 8.87469422 93.6582944 8.17710445 95.8052549 3.82688723 97.9522154 8.17710445 102.752965 8.87469422 99.27911 12.2608661 100.099176 17.0422175 "></polygon>
                                    <polygon id="Star-1-Copy-4" transform="translate(38.728420, 10.500000) scale(1, -1) rotate(-36.000000) translate(-38.728420, -10.500000) " points="38.72842 14.1526275 34.4344989 16.4100754 35.2545648 11.628724 31.7807097 8.24255209 36.5814594 7.54496232 38.72842 3.1947451 40.8753805 7.54496232 45.6761303 8.24255209 42.2022751 11.628724 43.0223411 16.4100754 "></polygon>
                                    <polygon id="Star-1-Copy-5" transform="translate(11.000000, 10.500000) scale(1, -1) rotate(-36.000000) translate(-11.000000, -10.500000) " points="11 14.1526275 6.7060789 16.4100754 7.52614486 11.628724 4.05228972 8.24255209 8.85303945 7.54496232 11 3.1947451 13.1469605 7.54496232 17.9477103 8.24255209 14.4738551 11.628724 15.2939211 16.4100754 "></polygon>
                                </g>
                            </g>
                            <g id="Group-Copy-2" transform="translate(60.000000, 0.000000)">
                                <rect id="Rectangle-1-Copy-3" fill="#3074B7" x="0.270454545" y="0" width="118.699495" height="16.7977528"></rect>
                                <rect id="Rectangle-5" fill="#E63030" x="0.300505051" y="16.7977528" width="118.699495" height="31.4044944"></rect>
                                <rect id="Rectangle-1-Copy-4" fill="#3074B7" x="0.300505051" y="48.2022472" width="118.699495" height="16.7977528"></rect>
                                <g id="Group-Copy" transform="translate(6.000000, 22.000000)" fill="#FFFAFA">
                                    <polygon id="Star-1-Copy-2" transform="translate(67.266837, 11.132142) scale(1, -1) rotate(-36.000000) translate(-67.266837, -11.132142) " points="67.2668374 14.7847696 62.9729163 17.0422175 63.7929823 12.2608661 60.3191272 8.87469422 65.1198769 8.17710445 67.2668374 3.82688723 69.413798 8.17710445 74.2145477 8.87469422 70.7406926 12.2608661 71.5607585 17.0422175 "></polygon>
                                    <polygon id="Star-1-Copy-3" transform="translate(95.805255, 11.132142) scale(1, -1) rotate(-36.000000) translate(-95.805255, -11.132142) " points="95.8052549 14.7847696 91.5113338 17.0422175 92.3313998 12.2608661 88.8575446 8.87469422 93.6582944 8.17710445 95.8052549 3.82688723 97.9522154 8.17710445 102.752965 8.87469422 99.27911 12.2608661 100.099176 17.0422175 "></polygon>
                                    <polygon id="Star-1-Copy-4" transform="translate(38.728420, 10.500000) scale(1, -1) rotate(-36.000000) translate(-38.728420, -10.500000) " points="38.72842 14.1526275 34.4344989 16.4100754 35.2545648 11.628724 31.7807097 8.24255209 36.5814594 7.54496232 38.72842 3.1947451 40.8753805 7.54496232 45.6761303 8.24255209 42.2022751 11.628724 43.0223411 16.4100754 "></polygon>
                                    <polygon id="Star-1-Copy-5" transform="translate(11.000000, 10.500000) scale(1, -1) rotate(-36.000000) translate(-11.000000, -10.500000) " points="11 14.1526275 6.7060789 16.4100754 7.52614486 11.628724 4.05228972 8.24255209 8.85303945 7.54496232 11 3.1947451 13.1469605 7.54496232 17.9477103 8.24255209 14.4738551 11.628724 15.2939211 16.4100754 "></polygon>
                                </g>
                            </g>
                            <g id="Group-Copy-3">
                                <rect id="Rectangle-1-Copy-3" fill="#3074B7" x="0.270454545" y="0" width="118.699495" height="16.7977528"></rect>
                                <rect id="Rectangle-5" fill="#E63030" x="0.300505051" y="16.7977528" width="118.699495" height="31.4044944"></rect>
                                <rect id="Rectangle-1-Copy-4" fill="#3074B7" x="0.300505051" y="48.2022472" width="118.699495" height="16.7977528"></rect>
                                <g id="Group-Copy" transform="translate(6.000000, 22.000000)" fill="#FFFAFA">
                                    <polygon id="Star-1-Copy-2" transform="translate(67.266837, 11.132142) scale(1, -1) rotate(-36.000000) translate(-67.266837, -11.132142) " points="67.2668374 14.7847696 62.9729163 17.0422175 63.7929823 12.2608661 60.3191272 8.87469422 65.1198769 8.17710445 67.2668374 3.82688723 69.413798 8.17710445 74.2145477 8.87469422 70.7406926 12.2608661 71.5607585 17.0422175 "></polygon>
                                    <polygon id="Star-1-Copy-3" transform="translate(95.805255, 11.132142) scale(1, -1) rotate(-36.000000) translate(-95.805255, -11.132142) " points="95.8052549 14.7847696 91.5113338 17.0422175 92.3313998 12.2608661 88.8575446 8.87469422 93.6582944 8.17710445 95.8052549 3.82688723 97.9522154 8.17710445 102.752965 8.87469422 99.27911 12.2608661 100.099176 17.0422175 "></polygon>
                                    <polygon id="Star-1-Copy-4" transform="translate(38.728420, 10.500000) scale(1, -1) rotate(-36.000000) translate(-38.728420, -10.500000) " points="38.72842 14.1526275 34.4344989 16.4100754 35.2545648 11.628724 31.7807097 8.24255209 36.5814594 7.54496232 38.72842 3.1947451 40.8753805 7.54496232 45.6761303 8.24255209 42.2022751 11.628724 43.0223411 16.4100754 "></polygon>
                                    <polygon id="Star-1-Copy-5" transform="translate(11.000000, 10.500000) scale(1, -1) rotate(-36.000000) translate(-11.000000, -10.500000) " points="11 14.1526275 6.7060789 16.4100754 7.52614486 11.628724 4.05228972 8.24255209 8.85303945 7.54496232 11 3.1947451 13.1469605 7.54496232 17.9477103 8.24255209 14.4738551 11.628724 15.2939211 16.4100754 "></polygon>
                                </g>
                            </g>
                        </g>
                    </g>
                </g>
                <g id="Rectangle-1-Copy-4-+-Rectangle-1-Copy-3-+-Rectangle-5-+-Group-+-Group-+-Group-Copy-2-+-Group-Copy-3-Copy-Copy-Copy-Copy" transform="translate(1095.000000, 0.000000)" sketch:type="MSShapeGroup">
                    <g id="Rectangle-1-Copy-4-+-Rectangle-1-Copy-3-+-Rectangle-5">
                        <rect id="Rectangle-1-Copy-4" fill="#3074B7" x="0.300505051" y="48.2022472" width="118.699495" height="16.7977528"></rect>
                        <rect id="Rectangle-1-Copy-3" fill="#3074B7" x="0.270454545" y="0" width="118.699495" height="16.7977528"></rect>
                        <rect id="Rectangle-5" fill="#E63030" x="0.300505051" y="16.7977528" width="118.699495" height="31.4044944"></rect>
                    </g>
                    <g id="Group-+-Group-+-Group-Copy-2-+-Group-Copy-3" transform="translate(6.000000, 0.000000)">
                        <g id="Group" transform="translate(0.000000, 22.000000)" fill="#FFFAFA">
                            <polygon id="Star-1-Copy-2" transform="translate(67.266837, 11.132142) scale(1, -1) rotate(-36.000000) translate(-67.266837, -11.132142) " points="67.2668374 14.7847696 62.9729163 17.0422175 63.7929823 12.2608661 60.3191272 8.87469422 65.1198769 8.17710445 67.2668374 3.82688723 69.413798 8.17710445 74.2145477 8.87469422 70.7406926 12.2608661 71.5607585 17.0422175 "></polygon>
                            <polygon id="Star-1-Copy-3" transform="translate(95.805255, 11.132142) scale(1, -1) rotate(-36.000000) translate(-95.805255, -11.132142) " points="95.8052549 14.7847696 91.5113338 17.0422175 92.3313998 12.2608661 88.8575446 8.87469422 93.6582944 8.17710445 95.8052549 3.82688723 97.9522154 8.17710445 102.752965 8.87469422 99.27911 12.2608661 100.099176 17.0422175 "></polygon>
                            <polygon id="Star-1-Copy-4" transform="translate(38.728420, 10.500000) scale(1, -1) rotate(-36.000000) translate(-38.728420, -10.500000) " points="38.72842 14.1526275 34.4344989 16.4100754 35.2545648 11.628724 31.7807097 8.24255209 36.5814594 7.54496232 38.72842 3.1947451 40.8753805 7.54496232 45.6761303 8.24255209 42.2022751 11.628724 43.0223411 16.4100754 "></polygon>
                            <polygon id="Star-1-Copy-5" transform="translate(11.000000, 10.500000) scale(1, -1) rotate(-36.000000) translate(-11.000000, -10.500000) " points="11 14.1526275 6.7060789 16.4100754 7.52614486 11.628724 4.05228972 8.24255209 8.85303945 7.54496232 11 3.1947451 13.1469605 7.54496232 17.9477103 8.24255209 14.4738551 11.628724 15.2939211 16.4100754 "></polygon>
                        </g>
                        <g id="Group-+-Group-Copy-2-+-Group-Copy-3" transform="translate(73.000000, 0.000000)">
                            <g id="Group" transform="translate(177.000000, 0.000000)">
                                <rect id="Rectangle-1-Copy-3" fill="#3074B7" x="0.270454545" y="0" width="118.699495" height="16.7977528"></rect>
                                <rect id="Rectangle-5" fill="#E63030" x="0.300505051" y="16.7977528" width="118.699495" height="31.4044944"></rect>
                                <rect id="Rectangle-1-Copy-4" fill="#3074B7" x="0.300505051" y="48.2022472" width="118.699495" height="16.7977528"></rect>
                                <g id="Group-Copy" transform="translate(6.000000, 22.000000)" fill="#FFFAFA">
                                    <polygon id="Star-1-Copy-2" transform="translate(67.266837, 11.132142) scale(1, -1) rotate(-36.000000) translate(-67.266837, -11.132142) " points="67.2668374 14.7847696 62.9729163 17.0422175 63.7929823 12.2608661 60.3191272 8.87469422 65.1198769 8.17710445 67.2668374 3.82688723 69.413798 8.17710445 74.2145477 8.87469422 70.7406926 12.2608661 71.5607585 17.0422175 "></polygon>
                                    <polygon id="Star-1-Copy-3" transform="translate(95.805255, 11.132142) scale(1, -1) rotate(-36.000000) translate(-95.805255, -11.132142) " points="95.8052549 14.7847696 91.5113338 17.0422175 92.3313998 12.2608661 88.8575446 8.87469422 93.6582944 8.17710445 95.8052549 3.82688723 97.9522154 8.17710445 102.752965 8.87469422 99.27911 12.2608661 100.099176 17.0422175 "></polygon>
                                    <polygon id="Star-1-Copy-4" transform="translate(38.728420, 10.500000) scale(1, -1) rotate(-36.000000) translate(-38.728420, -10.500000) " points="38.72842 14.1526275 34.4344989 16.4100754 35.2545648 11.628724 31.7807097 8.24255209 36.5814594 7.54496232 38.72842 3.1947451 40.8753805 7.54496232 45.6761303 8.24255209 42.2022751 11.628724 43.0223411 16.4100754 "></polygon>
                                    <polygon id="Star-1-Copy-5" transform="translate(11.000000, 10.500000) scale(1, -1) rotate(-36.000000) translate(-11.000000, -10.500000) " points="11 14.1526275 6.7060789 16.4100754 7.52614486 11.628724 4.05228972 8.24255209 8.85303945 7.54496232 11 3.1947451 13.1469605 7.54496232 17.9477103 8.24255209 14.4738551 11.628724 15.2939211 16.4100754 "></polygon>
                                </g>
                            </g>
                            <g id="Group-Copy-2" transform="translate(60.000000, 0.000000)">
                                <rect id="Rectangle-1-Copy-3" fill="#3074B7" x="0.270454545" y="0" width="118.699495" height="16.7977528"></rect>
                                <rect id="Rectangle-5" fill="#E63030" x="0.300505051" y="16.7977528" width="118.699495" height="31.4044944"></rect>
                                <rect id="Rectangle-1-Copy-4" fill="#3074B7" x="0.300505051" y="48.2022472" width="118.699495" height="16.7977528"></rect>
                                <g id="Group-Copy" transform="translate(6.000000, 22.000000)" fill="#FFFAFA">
                                    <polygon id="Star-1-Copy-2" transform="translate(67.266837, 11.132142) scale(1, -1) rotate(-36.000000) translate(-67.266837, -11.132142) " points="67.2668374 14.7847696 62.9729163 17.0422175 63.7929823 12.2608661 60.3191272 8.87469422 65.1198769 8.17710445 67.2668374 3.82688723 69.413798 8.17710445 74.2145477 8.87469422 70.7406926 12.2608661 71.5607585 17.0422175 "></polygon>
                                    <polygon id="Star-1-Copy-3" transform="translate(95.805255, 11.132142) scale(1, -1) rotate(-36.000000) translate(-95.805255, -11.132142) " points="95.8052549 14.7847696 91.5113338 17.0422175 92.3313998 12.2608661 88.8575446 8.87469422 93.6582944 8.17710445 95.8052549 3.82688723 97.9522154 8.17710445 102.752965 8.87469422 99.27911 12.2608661 100.099176 17.0422175 "></polygon>
                                    <polygon id="Star-1-Copy-4" transform="translate(38.728420, 10.500000) scale(1, -1) rotate(-36.000000) translate(-38.728420, -10.500000) " points="38.72842 14.1526275 34.4344989 16.4100754 35.2545648 11.628724 31.7807097 8.24255209 36.5814594 7.54496232 38.72842 3.1947451 40.8753805 7.54496232 45.6761303 8.24255209 42.2022751 11.628724 43.0223411 16.4100754 "></polygon>
                                    <polygon id="Star-1-Copy-5" transform="translate(11.000000, 10.500000) scale(1, -1) rotate(-36.000000) translate(-11.000000, -10.500000) " points="11 14.1526275 6.7060789 16.4100754 7.52614486 11.628724 4.05228972 8.24255209 8.85303945 7.54496232 11 3.1947451 13.1469605 7.54496232 17.9477103 8.24255209 14.4738551 11.628724 15.2939211 16.4100754 "></polygon>
                                </g>
                            </g>
                            <g id="Group-Copy-3">
                                <rect id="Rectangle-1-Copy-3" fill="#3074B7" x="0.270454545" y="0" width="118.699495" height="16.7977528"></rect>
                                <rect id="Rectangle-5" fill="#E63030" x="0.300505051" y="16.7977528" width="118.699495" height="31.4044944"></rect>
                                <rect id="Rectangle-1-Copy-4" fill="#3074B7" x="0.300505051" y="48.2022472" width="118.699495" height="16.7977528"></rect>
                                <g id="Group-Copy" transform="translate(6.000000, 22.000000)" fill="#FFFAFA">
                                    <polygon id="Star-1-Copy-2" transform="translate(67.266837, 11.132142) scale(1, -1) rotate(-36.000000) translate(-67.266837, -11.132142) " points="67.2668374 14.7847696 62.9729163 17.0422175 63.7929823 12.2608661 60.3191272 8.87469422 65.1198769 8.17710445 67.2668374 3.82688723 69.413798 8.17710445 74.2145477 8.87469422 70.7406926 12.2608661 71.5607585 17.0422175 "></polygon>
                                    <polygon id="Star-1-Copy-3" transform="translate(95.805255, 11.132142) scale(1, -1) rotate(-36.000000) translate(-95.805255, -11.132142) " points="95.8052549 14.7847696 91.5113338 17.0422175 92.3313998 12.2608661 88.8575446 8.87469422 93.6582944 8.17710445 95.8052549 3.82688723 97.9522154 8.17710445 102.752965 8.87469422 99.27911 12.2608661 100.099176 17.0422175 "></polygon>
                                    <polygon id="Star-1-Copy-4" transform="translate(38.728420, 10.500000) scale(1, -1) rotate(-36.000000) translate(-38.728420, -10.500000) " points="38.72842 14.1526275 34.4344989 16.4100754 35.2545648 11.628724 31.7807097 8.24255209 36.5814594 7.54496232 38.72842 3.1947451 40.8753805 7.54496232 45.6761303 8.24255209 42.2022751 11.628724 43.0223411 16.4100754 "></polygon>
                                    <polygon id="Star-1-Copy-5" transform="translate(11.000000, 10.500000) scale(1, -1) rotate(-36.000000) translate(-11.000000, -10.500000) " points="11 14.1526275 6.7060789 16.4100754 7.52614486 11.628724 4.05228972 8.24255209 8.85303945 7.54496232 11 3.1947451 13.1469605 7.54496232 17.9477103 8.24255209 14.4738551 11.628724 15.2939211 16.4100754 "></polygon>
                                </g>
                            </g>
                        </g>
                    </g>
                </g>
                <g id="Rectangle-1-Copy-4-+-Rectangle-1-Copy-3-+-Rectangle-5-+-Group-+-Group-+-Group-Copy-2-+-Group-Copy-3-Copy-Copy-Copy" transform="translate(732.000000, 0.000000)" sketch:type="MSShapeGroup">
                    <g id="Rectangle-1-Copy-4-+-Rectangle-1-Copy-3-+-Rectangle-5">
                        <rect id="Rectangle-1-Copy-4" fill="#3074B7" x="0.300505051" y="48.2022472" width="118.699495" height="16.7977528"></rect>
                        <rect id="Rectangle-1-Copy-3" fill="#3074B7" x="0.270454545" y="0" width="118.699495" height="16.7977528"></rect>
                        <rect id="Rectangle-5" fill="#E63030" x="0.300505051" y="16.7977528" width="118.699495" height="31.4044944"></rect>
                    </g>
                    <g id="Group-+-Group-+-Group-Copy-2-+-Group-Copy-3" transform="translate(6.000000, 0.000000)">
                        <g id="Group" transform="translate(0.000000, 22.000000)" fill="#FFFAFA">
                            <polygon id="Star-1-Copy-2" transform="translate(67.266837, 11.132142) scale(1, -1) rotate(-36.000000) translate(-67.266837, -11.132142) " points="67.2668374 14.7847696 62.9729163 17.0422175 63.7929823 12.2608661 60.3191272 8.87469422 65.1198769 8.17710445 67.2668374 3.82688723 69.413798 8.17710445 74.2145477 8.87469422 70.7406926 12.2608661 71.5607585 17.0422175 "></polygon>
                            <polygon id="Star-1-Copy-3" transform="translate(95.805255, 11.132142) scale(1, -1) rotate(-36.000000) translate(-95.805255, -11.132142) " points="95.8052549 14.7847696 91.5113338 17.0422175 92.3313998 12.2608661 88.8575446 8.87469422 93.6582944 8.17710445 95.8052549 3.82688723 97.9522154 8.17710445 102.752965 8.87469422 99.27911 12.2608661 100.099176 17.0422175 "></polygon>
                            <polygon id="Star-1-Copy-4" transform="translate(38.728420, 10.500000) scale(1, -1) rotate(-36.000000) translate(-38.728420, -10.500000) " points="38.72842 14.1526275 34.4344989 16.4100754 35.2545648 11.628724 31.7807097 8.24255209 36.5814594 7.54496232 38.72842 3.1947451 40.8753805 7.54496232 45.6761303 8.24255209 42.2022751 11.628724 43.0223411 16.4100754 "></polygon>
                            <polygon id="Star-1-Copy-5" transform="translate(11.000000, 10.500000) scale(1, -1) rotate(-36.000000) translate(-11.000000, -10.500000) " points="11 14.1526275 6.7060789 16.4100754 7.52614486 11.628724 4.05228972 8.24255209 8.85303945 7.54496232 11 3.1947451 13.1469605 7.54496232 17.9477103 8.24255209 14.4738551 11.628724 15.2939211 16.4100754 "></polygon>
                        </g>
                        <g id="Group-+-Group-Copy-2-+-Group-Copy-3" transform="translate(73.000000, 0.000000)">
                            <g id="Group" transform="translate(177.000000, 0.000000)">
                                <rect id="Rectangle-1-Copy-3" fill="#3074B7" x="0.270454545" y="0" width="118.699495" height="16.7977528"></rect>
                                <rect id="Rectangle-5" fill="#E63030" x="0.300505051" y="16.7977528" width="118.699495" height="31.4044944"></rect>
                                <rect id="Rectangle-1-Copy-4" fill="#3074B7" x="0.300505051" y="48.2022472" width="118.699495" height="16.7977528"></rect>
                                <g id="Group-Copy" transform="translate(6.000000, 22.000000)" fill="#FFFAFA">
                                    <polygon id="Star-1-Copy-2" transform="translate(67.266837, 11.132142) scale(1, -1) rotate(-36.000000) translate(-67.266837, -11.132142) " points="67.2668374 14.7847696 62.9729163 17.0422175 63.7929823 12.2608661 60.3191272 8.87469422 65.1198769 8.17710445 67.2668374 3.82688723 69.413798 8.17710445 74.2145477 8.87469422 70.7406926 12.2608661 71.5607585 17.0422175 "></polygon>
                                    <polygon id="Star-1-Copy-3" transform="translate(95.805255, 11.132142) scale(1, -1) rotate(-36.000000) translate(-95.805255, -11.132142) " points="95.8052549 14.7847696 91.5113338 17.0422175 92.3313998 12.2608661 88.8575446 8.87469422 93.6582944 8.17710445 95.8052549 3.82688723 97.9522154 8.17710445 102.752965 8.87469422 99.27911 12.2608661 100.099176 17.0422175 "></polygon>
                                    <polygon id="Star-1-Copy-4" transform="translate(38.728420, 10.500000) scale(1, -1) rotate(-36.000000) translate(-38.728420, -10.500000) " points="38.72842 14.1526275 34.4344989 16.4100754 35.2545648 11.628724 31.7807097 8.24255209 36.5814594 7.54496232 38.72842 3.1947451 40.8753805 7.54496232 45.6761303 8.24255209 42.2022751 11.628724 43.0223411 16.4100754 "></polygon>
                                    <polygon id="Star-1-Copy-5" transform="translate(11.000000, 10.500000) scale(1, -1) rotate(-36.000000) translate(-11.000000, -10.500000) " points="11 14.1526275 6.7060789 16.4100754 7.52614486 11.628724 4.05228972 8.24255209 8.85303945 7.54496232 11 3.1947451 13.1469605 7.54496232 17.9477103 8.24255209 14.4738551 11.628724 15.2939211 16.4100754 "></polygon>
                                </g>
                            </g>
                            <g id="Group-Copy-2" transform="translate(60.000000, 0.000000)">
                                <rect id="Rectangle-1-Copy-3" fill="#3074B7" x="0.270454545" y="0" width="118.699495" height="16.7977528"></rect>
                                <rect id="Rectangle-5" fill="#E63030" x="0.300505051" y="16.7977528" width="118.699495" height="31.4044944"></rect>
                                <rect id="Rectangle-1-Copy-4" fill="#3074B7" x="0.300505051" y="48.2022472" width="118.699495" height="16.7977528"></rect>
                                <g id="Group-Copy" transform="translate(6.000000, 22.000000)" fill="#FFFAFA">
                                    <polygon id="Star-1-Copy-2" transform="translate(67.266837, 11.132142) scale(1, -1) rotate(-36.000000) translate(-67.266837, -11.132142) " points="67.2668374 14.7847696 62.9729163 17.0422175 63.7929823 12.2608661 60.3191272 8.87469422 65.1198769 8.17710445 67.2668374 3.82688723 69.413798 8.17710445 74.2145477 8.87469422 70.7406926 12.2608661 71.5607585 17.0422175 "></polygon>
                                    <polygon id="Star-1-Copy-3" transform="translate(95.805255, 11.132142) scale(1, -1) rotate(-36.000000) translate(-95.805255, -11.132142) " points="95.8052549 14.7847696 91.5113338 17.0422175 92.3313998 12.2608661 88.8575446 8.87469422 93.6582944 8.17710445 95.8052549 3.82688723 97.9522154 8.17710445 102.752965 8.87469422 99.27911 12.2608661 100.099176 17.0422175 "></polygon>
                                    <polygon id="Star-1-Copy-4" transform="translate(38.728420, 10.500000) scale(1, -1) rotate(-36.000000) translate(-38.728420, -10.500000) " points="38.72842 14.1526275 34.4344989 16.4100754 35.2545648 11.628724 31.7807097 8.24255209 36.5814594 7.54496232 38.72842 3.1947451 40.8753805 7.54496232 45.6761303 8.24255209 42.2022751 11.628724 43.0223411 16.4100754 "></polygon>
                                    <polygon id="Star-1-Copy-5" transform="translate(11.000000, 10.500000) scale(1, -1) rotate(-36.000000) translate(-11.000000, -10.500000) " points="11 14.1526275 6.7060789 16.4100754 7.52614486 11.628724 4.05228972 8.24255209 8.85303945 7.54496232 11 3.1947451 13.1469605 7.54496232 17.9477103 8.24255209 14.4738551 11.628724 15.2939211 16.4100754 "></polygon>
                                </g>
                            </g>
                            <g id="Group-Copy-3">
                                <rect id="Rectangle-1-Copy-3" fill="#3074B7" x="0.270454545" y="0" width="118.699495" height="16.7977528"></rect>
                                <rect id="Rectangle-5" fill="#E63030" x="0.300505051" y="16.7977528" width="118.699495" height="31.4044944"></rect>
                                <rect id="Rectangle-1-Copy-4" fill="#3074B7" x="0.300505051" y="48.2022472" width="118.699495" height="16.7977528"></rect>
                                <g id="Group-Copy" transform="translate(6.000000, 22.000000)" fill="#FFFAFA">
                                    <polygon id="Star-1-Copy-2" transform="translate(67.266837, 11.132142) scale(1, -1) rotate(-36.000000) translate(-67.266837, -11.132142) " points="67.2668374 14.7847696 62.9729163 17.0422175 63.7929823 12.2608661 60.3191272 8.87469422 65.1198769 8.17710445 67.2668374 3.82688723 69.413798 8.17710445 74.2145477 8.87469422 70.7406926 12.2608661 71.5607585 17.0422175 "></polygon>
                                    <polygon id="Star-1-Copy-3" transform="translate(95.805255, 11.132142) scale(1, -1) rotate(-36.000000) translate(-95.805255, -11.132142) " points="95.8052549 14.7847696 91.5113338 17.0422175 92.3313998 12.2608661 88.8575446 8.87469422 93.6582944 8.17710445 95.8052549 3.82688723 97.9522154 8.17710445 102.752965 8.87469422 99.27911 12.2608661 100.099176 17.0422175 "></polygon>
                                    <polygon id="Star-1-Copy-4" transform="translate(38.728420, 10.500000) scale(1, -1) rotate(-36.000000) translate(-38.728420, -10.500000) " points="38.72842 14.1526275 34.4344989 16.4100754 35.2545648 11.628724 31.7807097 8.24255209 36.5814594 7.54496232 38.72842 3.1947451 40.8753805 7.54496232 45.6761303 8.24255209 42.2022751 11.628724 43.0223411 16.4100754 "></polygon>
                                    <polygon id="Star-1-Copy-5" transform="translate(11.000000, 10.500000) scale(1, -1) rotate(-36.000000) translate(-11.000000, -10.500000) " points="11 14.1526275 6.7060789 16.4100754 7.52614486 11.628724 4.05228972 8.24255209 8.85303945 7.54496232 11 3.1947451 13.1469605 7.54496232 17.9477103 8.24255209 14.4738551 11.628724 15.2939211 16.4100754 "></polygon>
                                </g>
                            </g>
                        </g>
                    </g>
                </g>
            </g>
        </g>
    </g>
</svg>